<?xml version="1.0"?>
<svg xmlns="http://www.w3.org/2000/svg" xmlns:xlink="http://www.w3.org/1999/xlink" viewBox="0 0 512 512" width="512" height="512"><linearGradient id="abcd" gradientUnits="userSpaceOnUse" x1="256.001" x2="256.001" y1="20.767" y2="486.781"><stop offset="0" stop-color="#00efd1"/><stop offset="1" stop-color="#00acea"/></linearGradient><path d="m441.886 70a25.3 25.3 0 0 0 -34.915-.674l-169.358 155.808-34.53 31.714-6.527 6.047-81.442 55.07a9.977 9.977 0 0 0 -1.9 14.869 51.205 51.205 0 0 0 -18.431 11.827c-11.583 11.584-20.511 31.074-26.525 57.929a271.18 271.18 0 0 0 -5.564 36.024 10 10 0 0 0 9.973 10.718c.239 0 .479-.008.719-.026a271.18 271.18 0 0 0 36.024-5.564c26.855-6.014 46.345-14.937 57.95-26.542a51.542 51.542 0 0 0 11.778-18.43 9.991 9.991 0 0 0 6.612 2.515q.476 0 .954-.046a10 10 0 0 0 7.331-4.353l55.083-81.461 5.954-6.482 187.628-203.943a25.3 25.3 0 0 0 -.728-34.922zm-288.686 333.078c-14.654 14.653-48.32 22.061-69.245 24.962 2.887-20.913 10.283-54.551 24.969-69.237a31.068 31.068 0 0 1 21.076-9.126l32.335 32.335a31.594 31.594 0 0 1 -9.135 21.066zm79.769-99.472-48.713 72.04-36.917-36.916a10 10 0 0 0 -8.413-8.457l-.1-.013-2.492-2.5 72.06-48.726a9.875 9.875 0 0 0 1.074-.853l24.332 24.37a10.053 10.053 0 0 0 -.833 1.055zm14.377-15.8-23.155-23.192 19.817-18.2 21.585 21.551zm180.611-196.318-148.814 161.75-20.4-20.367 161.744-148.8a5.269 5.269 0 0 1 7.47 7.422z" fill="url(#a)"/></svg>
