<svg id="_x33_0" enable-background="new 0 0 64 64" height="512" viewBox="0 0 64 64" width="512" xmlns="http://www.w3.org/2000/svg" xmlns:xlink="http://www.w3.org/1999/xlink"><linearGradient id="SVGID_1_" gradientUnits="userSpaceOnUse" x1="31" x2="31" y1="63" y2="1"><stop offset="0" stop-color="#9f2fff"/><stop offset="1" stop-color="#0bb1d3"/></linearGradient><path d="m29 14c0-.552.448-1 1-1s1 .448 1 1-.448 1-1 1-1-.448-1-1zm6 1c.552 0 1-.448 1-1s-.448-1-1-1-1 .448-1 1 .448 1 1 1zm-23 3c.552 0 1-.448 1-1s-.448-1-1-1-1 .448-1 1 .448 1 1 1zm6 0c.552 0 1-.448 1-1s-.448-1-1-1-1 .448-1 1 .448 1 1 1zm11.293.707c.537.538 1.642 1.177 3.071 1.177.944 0 2.032-.279 3.19-1.052l-1.109-1.664c-2.207 1.473-3.597.259-3.747.116zm19.408 1.58-1.408 1.42c.619.619 1.643 1.177 2.776 1.177.859 0 1.781-.32 2.638-1.177l-1.414-1.414c-1.181 1.18-2.282.294-2.592-.006zm-33.704 1.625c.881 0 1.831-.326 2.71-1.205l-1.414-1.414c-1.197 1.195-2.303.368-2.612.085l-1.367 1.46c.602.57 1.588 1.074 2.683 1.074zm33.003-4.912c0-.552-.448-1-1-1s-1 .448-1 1 .448 1 1 1 1-.448 1-1zm5-1c-.552 0-1 .448-1 1s.448 1 1 1 1-.448 1-1-.448-1-1-1zm-51 11c0-1.507.43-2.555.886-3.664.548-1.335 1.114-2.716 1.114-5.336 0-.373-.006-.756-.012-1.147-.043-2.96-.097-6.644 2.354-9.131 1.805-1.831 4.637-2.722 8.658-2.722 3.511 0 6.115.693 7.919 2.088.052-.153.09-.304.153-.459 1.112-2.78 3.283-3.578 4.711-3.645 1.051-1.312 2.798-1.984 5.217-1.984 3.926 0 7.696 2.348 9.17 5.709.049.112.098.232.146.357 1.953-2.026 4.523-3.066 7.684-3.066 8.746 0 9.975 6.767 9.986 6.835l.014.165v4c0 3.632-2.168 5.8-3.066 6.543-.166.89-.766 2.665-2.934 3.688v.971c2.446.666 6 2.673 6 6.798v10.723 1.277 11.723l-1.496-.854c-1.643-.939-5.944-3.182-8.504-3.742v10.873h-18-18v-10.873c-2.56.559-6.861 2.803-8.504 3.741l-1.496.855v-13l.143-.238c.26-.433.552-.82.857-1.187v-10.298c0-.393.043-.76.103-1.115-1.473-.326-3.103-1.462-3.103-3.885zm9 3v-2.701c-1.525.523-4 1.817-4 4.701v8.466c.649-.453 1.325-.828 2-1.129v-6.337h2v5.62c2.121-.598 3.853-.62 4-.62h2.343c.004-1.214.257-2.436.763-3.447.628-1.256 1.738-2.835 4.165-3.36.152-.337.315-.657.489-.959-.647-2.154-2.564-2.873-3.759-3.112v2.878zm-1.154-15.685c-.152 1.769-.189 5.181 1.464 7.159.859 1.027 2.066 1.526 3.69 1.526s2.831-.499 3.69-1.526c1.621-1.939 1.617-5.257 1.473-7.053-2.925 1.078-5.238 1.084-6.888.013-.144-.094-.279-.193-.405-.297-1.138.405-2.226.342-3.024.178zm3.154 11.685v2h4v-1-1-1.244c-.619.157-1.283.244-2 .244s-1.381-.087-2-.244v.063zm14.72-5.482c.308.324.727.482 1.28.482h7c.553 0 .972-.158 1.28-.482.656-.69.743-2.014.721-2.465l-.001-5.686c-2.692-3.008-7.858-3.33-8.839-3.363-2.103.799-2.16 2.912-2.161 3.003v5.993c-.023.504.063 1.828.72 2.518zm8.28 2.482v2.243c1.222.398 3.59 1.418 5.41 3.74 1.595-1.525 3.538-2.355 4.59-2.719v-1.033c-2.168-1.022-2.767-2.798-2.934-3.688-.781-.646-2.514-2.374-2.956-5.198-.037.043-.072.085-.11.128v1.527c.013.196.098 2.449-1.263 3.888-.687.727-1.634 1.112-2.737 1.112zm-20 27h10.722c-4.193-2.797-7.097-5.66-8.607-8.535-.234-.445-.408-.943-.536-1.465h-1.579zm17.521 0c6.704-3.921 9.462-7.311 10.594-9.465.729-1.386.724-3.621-.01-5.087-.635-1.272-1.572-2.448-4.105-2.448-5.259 0-7.036 3.313-7.108 3.454l-.904 1.744-.882-1.75c-.07-.135-1.847-3.448-7.106-3.448-2.533 0-3.47 1.176-4.105 2.447-.733 1.467-.738 3.701-.01 5.087 1.132 2.154 3.89 5.544 10.594 9.465h3.042zm3.757 0h10.722v-10h-1.579c-.128.522-.302 1.02-.536 1.465-1.51 2.875-4.414 5.738-8.607 8.535zm13.483-11.852-.644-5.148h-.234l-.626 5.007c.292.01.819.045 1.504.141zm-.761-8.148c-.18 0-.339-.03-.506-.049-.364.435-.39.687-.38.758.016.112.107.214.195.291h1.383c.085-.075.178-.177.194-.291.011-.071-.016-.323-.38-.758-.167.019-.326.049-.506.049zm-2.456-.732c-.543-.351-.929-.745-1.152-1.017-.991.372-2.645 1.142-3.882 2.459.138.271.267.554.388.85 1.631.707 2.48 1.959 2.997 2.993.506 1.012.759 2.234.763 3.447h.585l.693-5.543c-.331-.305-.689-.772-.795-1.422-.095-.585.056-1.176.403-1.767zm-16.544-3.833c1.462.778 2.517.37 3 .075v-2.51h-3zm-3.335.342c.518-.244.974-.417 1.335-.534v-2.243c-.47 0-.905-.084-1.311-.221-.135 1.012-.183 2.133-.024 2.998zm-3.059 5.257c3.971.175 6.271 1.972 7.394 3.255 1.182-1.35 3.64-3.289 8-3.289.141 0 .257.022.391.027-1.615-2.632-4.151-3.629-5.159-3.933-.605.416-1.505.789-2.596.789-.831 0-1.775-.238-2.778-.815-.936.269-3.586 1.245-5.252 3.966zm-10.606 19.064v-10.026c-1.875.208-5.923 1.023-8 4.215v9.026c2.015-1.065 5.548-2.792 8-3.215zm34 1.902h-32v9h16 16zm10-7v-.713c-2.076-3.191-6.123-4.006-8-4.214v10.026c2.452.424 5.985 2.15 8 3.215zm-4.343-16.81c-.212.27-.609.697-1.2 1.079.347.59.498 1.181.403 1.766-.105.649-.464 1.117-.795 1.422l.765 6.116c1.657.448 3.567 1.255 5.171 2.691v-8.264c-.001-3.115-2.884-4.372-4.344-4.81zm-1.657-2.361c-.597.104-1.251.171-2 .171s-1.403-.067-2-.171v1.235c.282.324.954.936 2 .936 1.043 0 1.714-.609 2-.937zm-9.166-16.275c.05 1.154-.149 2.5-.834 3.964v1.482c0 1.475.466 2.632 1 3.475v-4.637l.052-.154c.05-.151 1.269-3.684 4.948-3.684 3.495 0 5.738 3.305 5.832 3.445l-1.664 1.109c-.016-.022-1.753-2.554-4.168-2.554-1.934 0-2.789 1.685-3 2.186v6.814c.008.295.219 3 5 3s4.992-2.705 5-3.013v-6.987c0-2.224-2.227-3.021-2.321-3.053l.638-1.896c.15.051 3.683 1.271 3.683 4.949v4.475c.534-.843 1-2 1-3.475v-3.903c-.138-.631-1.351-5.097-8-5.097-3.154 0-5.499 1.163-7.166 3.554zm-14.032-2.542.036-.012h.162c.296 0 7.294.05 10.778 4.373l.222.274v1.344c.959-1.858 1.1-3.742.339-5.479-1.165-2.657-4.183-4.512-7.339-4.512-1.843 0-3.1.444-3.735 1.319-.617.85-.575 1.981-.463 2.693zm-3.802 5.399v-.411c0-.982.456-2.775 1.961-4.004-.13-.518-.331-1.594-.149-2.762-.649.287-1.383.888-1.883 2.137-.769 1.921-.487 3.673.071 5.04zm-21 14.589c0 1.574 1.137 1.913 1.755 1.982 1.177-2.139 3.493-3.303 5.245-3.78v-1.338c-.451-.31-.864-.676-1.229-1.112-2.891-3.464-1.803-9.668-1.755-9.931l.238-1.312 1.192.596c.008.004.974.451 2.112.296-.547-1.195-.558-2.326-.558-2.401h1l1-.005c0 .019.036 1.908 1.377 2.77 1.255.807 3.404.572 6.217-.678l1.162-.517.228 1.252c.048.262 1.136 6.467-1.755 9.931-.364.436-.778.802-1.229 1.112v1.217c1.653.251 3.892 1.152 5.11 3.291.565-.618 1.163-1.124 1.754-1.543-.572-1.804-.212-4.248.023-5.425-.959-1.412-.898-3.235-.885-3.461l-.001-1.759c-.903-1.056-2.677-3.569-2.533-6.778-1.37-1.613-3.81-2.407-7.468-2.407-3.457 0-5.823.695-7.232 2.126-1.864 1.891-1.819 4.976-1.779 7.698.005.401.011.794.011 1.176 0 3.015-.701 4.723-1.265 6.095-.411 1.002-.735 1.793-.735 2.905z" fill="url(#SVGID_1_)"/></svg>