<svg height="512" viewBox="0 0 512 512" width="512" xmlns="http://www.w3.org/2000/svg" xmlns:xlink="http://www.w3.org/1999/xlink"><linearGradient id="a" gradientUnits="userSpaceOnUse" x1="18.691" x2="514.234" y1="493.309" y2="-2.234" data-name="New Gradient Swatch 1"><stop offset="0" stop-color="#003f8a"/><stop offset=".518" stop-color="#00d7df"/><stop offset="1" stop-color="#006df0"/></linearGradient><linearGradient id="b" x1="88.691" x2="584.234" xlink:href="#a" y1="563.309" y2="67.766"/><linearGradient id="c" x1="116.691" x2="612.234" xlink:href="#a" y1="591.309" y2="95.766"/><linearGradient id="d" x1="18.691" x2="514.234" xlink:href="#a" y1="493.309" y2="-2.234"/><linearGradient id="e" x1="42.691" x2="538.234" xlink:href="#a" y1="517.309" y2="21.766"/><linearGradient id="f" x1="-5.309" x2="490.234" xlink:href="#a" y1="469.309" y2="-26.234"/><g><path d="m360 8h-208a32.042 32.042 0 0 0 -32 32v432a32.042 32.042 0 0 0 32 32h208a32.042 32.042 0 0 0 32-32v-432a32.042 32.042 0 0 0 -32-32zm-66.56 16-4.5 16h-66.69l-4-16zm82.56 448a16.021 16.021 0 0 1 -16 16h-208a16.021 16.021 0 0 1 -16-16v-432a16.021 16.021 0 0 1 16-16h49.75l6.49 25.94a8 8 0 0 0 7.76 6.06h79a8 8 0 0 0 7.7-5.83l7.36-26.17h49.94a16.021 16.021 0 0 1 16 16z" fill="url(#a)"/><path d="m216 456h-56a8 8 0 0 0 0 16h56a8 8 0 0 0 0-16z" fill="url(#b)"/><path d="m248 456h-8a8 8 0 0 0 0 16h8a8 8 0 0 0 0-16z" fill="url(#c)"/><path d="m284.116 209.14a8 8 0 0 0 -10.976 2.744l-48 80a8 8 0 1 0 13.72 8.232l48-80a8 8 0 0 0 -2.744-10.976z" fill="url(#d)"/><path d="m310.247 211a8 8 0 0 0 -12.494 10l28 35-28 35a8 8 0 0 0 12.494 10l32-40a8 8 0 0 0 0-10z" fill="url(#e)"/><path d="m201.753 301a8 8 0 1 0 12.494-10l-28-35 28-35a8 8 0 1 0 -12.494-10l-32 40a8 8 0 0 0 0 10z" fill="url(#f)"/></g></svg>