<?xml version="1.0" standalone="no"?>
<!DOCTYPE svg PUBLIC "-//W3C//DTD SVG 20010904//EN"
 "http://www.w3.org/TR/2001/REC-SVG-20010904/DTD/svg10.dtd">
<svg version="1.0" xmlns="http://www.w3.org/2000/svg"
 width="1000.000000pt" height="1000.000000pt" viewBox="0 0 1000.000000 1000.000000"
 preserveAspectRatio="xMidYMid meet">
<metadata>
Created by potrace 1.11, written by Peter Selinger 2001-2013
</metadata>
<g transform="translate(0.000000,1000.000000) scale(0.100000,-0.100000)"
fill="#000000" stroke="none">
<path d="M4832 8599 c-23 -9 -61 -46 -62 -61 0 -9 -111 -181 -120 -188 -4 -3
-9 -10 -11 -16 -2 -5 -85 -135 -184 -287 -99 -152 -191 -295 -205 -317 -43
-69 -254 -394 -263 -405 -4 -5 -31 -46 -59 -90 -103 -161 -187 -290 -197 -302
-6 -7 -11 -15 -11 -17 0 -3 -48 -80 -107 -171 -148 -226 -348 -534 -448 -690
-46 -71 -89 -135 -94 -142 -6 -7 -11 -15 -11 -17 0 -3 -20 -35 -45 -72 -25
-36 -45 -67 -45 -69 0 -2 -40 -64 -88 -137 -77 -117 -219 -335 -362 -558 -201
-311 -287 -445 -372 -574 -54 -81 -98 -150 -98 -153 0 -2 -11 -19 -25 -37 -14
-18 -25 -38 -25 -44 0 -6 -3 -12 -7 -14 -9 -3 -46 -55 -56 -78 -4 -8 -42 -68
-85 -132 -42 -65 -129 -198 -192 -295 -63 -98 -162 -250 -220 -338 -58 -88
-107 -164 -109 -170 -4 -8 -80 -126 -120 -185 -30 -43 -31 -57 -7 -92 l22 -33
309 1 c275 1 905 10 1358 19 146 3 157 2 157 -15 0 -26 -14 -14 375 -315 17
-13 116 -90 220 -171 105 -81 192 -151 193 -156 2 -4 8 -8 12 -8 5 0 57 -38
117 -85 59 -48 119 -95 133 -105 14 -11 53 -41 86 -67 34 -26 108 -84 165
-128 57 -44 106 -82 109 -85 3 -3 23 -18 45 -35 22 -16 42 -31 45 -34 3 -4 41
-33 85 -65 44 -33 85 -64 90 -70 16 -18 130 -103 154 -116 17 -9 26 -9 37 1 8
6 14 8 15 3 0 -5 4 0 9 12 6 16 15 20 37 17 17 -3 36 1 44 9 11 11 86 71 227
183 7 5 21 17 31 25 9 8 41 34 71 57 30 23 69 54 85 67 40 34 35 30 150 121
102 81 120 96 158 128 12 10 52 42 90 70 37 29 67 55 67 59 0 5 5 8 11 8 7 0
22 11 35 25 13 14 26 25 30 25 3 0 16 9 28 20 11 10 59 50 106 87 47 37 87 69
90 73 3 3 23 19 45 35 22 16 49 37 60 47 35 29 63 52 96 78 18 14 49 39 69 55
20 17 52 41 70 55 18 14 38 30 44 35 6 6 46 38 88 73 l76 62 841 0 840 0 20
21 c14 16 17 27 11 43 -9 26 -70 118 -83 127 -5 3 -8 8 -7 10 4 8 -24 59 -32
59 -4 0 -8 4 -8 9 0 9 -60 105 -80 129 -6 6 -8 12 -5 12 3 0 1 6 -5 12 -6 7
-26 38 -45 68 -19 30 -39 60 -45 67 -5 7 -10 16 -10 21 0 4 -9 18 -20 30 -12
12 -18 22 -15 22 4 0 -12 26 -34 58 -23 32 -41 63 -41 69 0 7 -10 19 -22 27
-12 9 -19 16 -15 16 9 0 -72 132 -88 142 -5 4 -6 8 -2 8 4 0 -1 10 -13 22 -11
12 -20 28 -20 35 0 7 -4 13 -10 13 -5 0 -10 5 -10 11 0 5 -18 37 -40 69 -22
32 -40 64 -40 69 0 6 -4 11 -10 11 -5 0 -10 7 -10 15 0 7 -8 18 -17 24 -10 5
-17 12 -15 16 2 3 -16 36 -40 73 -23 37 -49 79 -57 94 -7 16 -17 28 -22 28 -5
0 -9 5 -9 11 0 6 -13 31 -30 56 -16 24 -30 46 -30 49 0 2 -15 26 -33 52 -18
26 -45 68 -60 95 -15 26 -31 47 -36 47 -4 0 -8 6 -8 13 0 6 -46 83 -102 170
-55 87 -101 162 -101 167 0 6 -4 10 -8 10 -5 0 -15 12 -23 28 -7 15 -26 46
-41 69 -15 23 -28 46 -28 51 0 6 -3 12 -8 14 -4 2 -35 48 -69 103 -34 55 -66
105 -70 110 -5 6 -26 39 -48 75 -21 36 -43 68 -48 71 -5 3 -8 9 -8 12 1 11
-34 67 -41 67 -5 0 -8 5 -8 11 0 6 -13 30 -30 54 -16 24 -30 46 -30 50 0 8
-43 69 -52 73 -5 2 -8 10 -8 18 0 8 -9 23 -20 34 -11 11 -19 21 -18 23 1 1
-15 28 -35 60 -20 31 -37 62 -37 67 0 6 -3 10 -7 10 -5 0 -24 27 -42 60 -19
33 -39 60 -43 60 -4 0 -7 3 -6 8 2 8 -39 76 -140 230 -35 53 -63 99 -63 102 0
3 -9 15 -19 28 -11 12 -17 22 -13 22 3 0 -1 8 -9 18 -8 9 -64 96 -124 192 -60
96 -112 177 -116 178 -5 2 -8 8 -8 12 0 8 -31 59 -90 150 -60 93 -90 142 -90
150 0 6 -4 10 -9 10 -5 0 -14 14 -21 30 -7 17 -16 30 -20 30 -4 0 -10 8 -13
18 -9 26 -40 76 -54 85 -7 4 -13 12 -13 16 0 10 -47 88 -105 176 -22 33 -46
72 -54 87 -8 15 -22 36 -32 47 -10 10 -16 21 -13 24 2 2 -2 10 -11 17 -8 7
-15 19 -15 26 0 8 -4 14 -10 14 -5 0 -10 7 -10 15 0 8 -4 15 -10 15 -5 0 -10
5 -10 10 0 6 -22 44 -50 86 -27 41 -50 78 -50 81 0 3 -10 20 -23 37 -12 17
-40 60 -62 96 -21 36 -42 67 -47 68 -4 2 -8 8 -8 14 0 6 -13 30 -30 55 -16 24
-30 48 -30 54 0 5 -4 9 -9 9 -5 0 -15 12 -22 28 -8 15 -36 62 -63 105 -43 68
-60 83 -89 78 -5 -1 -6 3 -2 9 3 5 1 10 -5 10 -6 0 -9 4 -6 9 9 14 -37 29 -62
20z"/>
</g>
</svg>
